<svg xmlns="http://www.w3.org/2000/svg" width="1200" height="1200" viewBox="0 0 1200 1200">
  <defs>
    <linearGradient id="bg" x1="0" y1="0" x2="1" y2="1">
      <stop offset="0" stop-color="#EEF7FF"/>
      <stop offset="1" stop-color="#F3EEFF"/>
    </linearGradient>
    <radialGradient id="glowTL" cx="0.20" cy="0.18" r="0.9">
      <stop offset="0" stop-color="#FFFFFF" stop-opacity="0.78"/>
      <stop offset="1" stop-color="#FFFFFF" stop-opacity="0"/>
    </radialGradient>
    <radialGradient id="glowBR" cx="0.86" cy="0.86" r="0.9">
      <stop offset="0" stop-color="#FFFFFF" stop-opacity="0.42"/>
      <stop offset="1" stop-color="#FFFFFF" stop-opacity="0"/>
    </radialGradient>
  </defs>

  <rect width="1200" height="1200" fill="url(#bg)"/>
  <rect width="1200" height="1200" fill="url(#glowTL)" opacity="0.26"/>
  <rect width="1200" height="1200" fill="url(#glowBR)" opacity="0.18"/>

  <!-- Top-right multi-arc -->
  <g fill="none" stroke="#8B5CF6" stroke-opacity="0.16" stroke-width="2">
    <path d="M 820 64 A 316 316 0 0 1 1136 380" />
    <path d="M 790 88 A 346 346 0 0 1 1112 410" />
    <path d="M 760 112 A 376 376 0 0 1 1088 440" />
  </g>

  <!-- Dot grid (bottom-left) -->
  <g fill="#8B5CF6" fill-opacity="0.16">
    <circle cx="150" cy="920" r="2"/>
    <circle cx="180" cy="920" r="2"/>
    <circle cx="210" cy="920" r="2"/>
    <circle cx="240" cy="920" r="2"/>
    <circle cx="270" cy="920" r="2"/>

    <circle cx="150" cy="950" r="2"/>
    <circle cx="180" cy="950" r="2"/>
    <circle cx="210" cy="950" r="2"/>
    <circle cx="240" cy="950" r="2"/>
    <circle cx="270" cy="950" r="2"/>

    <circle cx="150" cy="980" r="2"/>
    <circle cx="180" cy="980" r="2"/>
    <circle cx="210" cy="980" r="2"/>
    <circle cx="240" cy="980" r="2"/>
    <circle cx="270" cy="980" r="2"/>
  </g>

  <!-- Center watermark -->
  <g opacity="0.08">
    <circle cx="600" cy="600" r="190" fill="#FFFFFF"/>
    <text x="600" y="675" text-anchor="middle" font-family="Inter, system-ui, -apple-system, Segoe UI, Roboto, Arial" font-size="260" font-weight="900" fill="#6D28D9">A</text>
  </g>
</svg>

